<mxfile host="app.diagrams.net" modified="2022-01-13T19:10:38.915Z" agent="5.0 (Windows)" etag="zk06ZSkyLlDVTL8bZvrg" version="16.2.6" type="github">
  <diagram id="u6rl6R46UQblC7SYuNOi" name="Page-1">
    <mxGraphModel dx="974" dy="497" grid="1" gridSize="10" guides="1" tooltips="1" connect="1" arrows="1" fold="1" page="1" pageScale="1" pageWidth="850" pageHeight="1100" math="0" shadow="0">
      <root>
        <mxCell id="0" />
        <mxCell id="1" parent="0" />
        <mxCell id="5z4E1XPEqlM8Mm5t0Zw2-1" value="" style="rounded=0;whiteSpace=wrap;html=1;" vertex="1" parent="1">
          <mxGeometry x="20" y="20" width="810" height="730" as="geometry" />
        </mxCell>
        <mxCell id="5z4E1XPEqlM8Mm5t0Zw2-7" value="" style="rounded=0;whiteSpace=wrap;html=1;fontSize=12;" vertex="1" parent="1">
          <mxGeometry x="80" y="90" width="640" height="40" as="geometry" />
        </mxCell>
        <mxCell id="5z4E1XPEqlM8Mm5t0Zw2-8" value="Search..." style="text;html=1;strokeColor=none;fillColor=none;align=left;verticalAlign=middle;whiteSpace=wrap;rounded=0;fontSize=12;fontStyle=2" vertex="1" parent="1">
          <mxGeometry x="110" y="95" width="110" height="30" as="geometry" />
        </mxCell>
        <mxCell id="5z4E1XPEqlM8Mm5t0Zw2-9" value="" style="rounded=0;whiteSpace=wrap;html=1;fontSize=12;" vertex="1" parent="1">
          <mxGeometry x="720" y="90" width="50" height="40" as="geometry" />
        </mxCell>
        <mxCell id="5z4E1XPEqlM8Mm5t0Zw2-12" value="" style="rounded=0;whiteSpace=wrap;html=1;fontSize=12;" vertex="1" parent="1">
          <mxGeometry x="80" y="180" width="690" height="30" as="geometry" />
        </mxCell>
        <mxCell id="5z4E1XPEqlM8Mm5t0Zw2-13" value="Last Name" style="text;html=1;strokeColor=none;fillColor=none;align=center;verticalAlign=middle;whiteSpace=wrap;rounded=0;fontSize=12;" vertex="1" parent="1">
          <mxGeometry x="80" y="180" width="140" height="30" as="geometry" />
        </mxCell>
        <mxCell id="5z4E1XPEqlM8Mm5t0Zw2-14" value="First Name" style="text;html=1;strokeColor=none;fillColor=none;align=center;verticalAlign=middle;whiteSpace=wrap;rounded=0;fontSize=12;" vertex="1" parent="1">
          <mxGeometry x="220" y="180" width="140" height="30" as="geometry" />
        </mxCell>
        <mxCell id="5z4E1XPEqlM8Mm5t0Zw2-16" value="M.I." style="text;html=1;strokeColor=none;fillColor=none;align=center;verticalAlign=middle;whiteSpace=wrap;rounded=0;fontSize=12;" vertex="1" parent="1">
          <mxGeometry x="380" y="180" width="90" height="30" as="geometry" />
        </mxCell>
        <mxCell id="5z4E1XPEqlM8Mm5t0Zw2-17" value="Age" style="text;html=1;strokeColor=none;fillColor=none;align=center;verticalAlign=middle;whiteSpace=wrap;rounded=0;fontSize=12;" vertex="1" parent="1">
          <mxGeometry x="480" y="180" width="60" height="30" as="geometry" />
        </mxCell>
        <mxCell id="5z4E1XPEqlM8Mm5t0Zw2-19" value="ID" style="text;html=1;strokeColor=none;fillColor=none;align=center;verticalAlign=middle;whiteSpace=wrap;rounded=0;fontSize=12;" vertex="1" parent="1">
          <mxGeometry x="550" y="180" width="220" height="30" as="geometry" />
        </mxCell>
        <mxCell id="5z4E1XPEqlM8Mm5t0Zw2-20" value="" style="rounded=0;whiteSpace=wrap;html=1;fontSize=12;strokeWidth=0;" vertex="1" parent="1">
          <mxGeometry x="80" y="220" width="690" height="40" as="geometry" />
        </mxCell>
        <mxCell id="5z4E1XPEqlM8Mm5t0Zw2-21" value="Lumenia" style="text;html=1;strokeColor=none;fillColor=none;align=center;verticalAlign=middle;whiteSpace=wrap;rounded=0;fontSize=12;" vertex="1" parent="1">
          <mxGeometry x="80" y="220" width="140" height="40" as="geometry" />
        </mxCell>
        <mxCell id="5z4E1XPEqlM8Mm5t0Zw2-22" value="Rita" style="text;html=1;strokeColor=none;fillColor=none;align=center;verticalAlign=middle;whiteSpace=wrap;rounded=0;fontSize=12;" vertex="1" parent="1">
          <mxGeometry x="220" y="220" width="140" height="40" as="geometry" />
        </mxCell>
        <mxCell id="5z4E1XPEqlM8Mm5t0Zw2-23" value="A." style="text;html=1;strokeColor=none;fillColor=none;align=center;verticalAlign=middle;whiteSpace=wrap;rounded=0;fontSize=12;" vertex="1" parent="1">
          <mxGeometry x="395" y="220" width="60" height="40" as="geometry" />
        </mxCell>
        <mxCell id="5z4E1XPEqlM8Mm5t0Zw2-24" value="22" style="text;html=1;strokeColor=none;fillColor=none;align=center;verticalAlign=middle;whiteSpace=wrap;rounded=0;fontSize=12;" vertex="1" parent="1">
          <mxGeometry x="480" y="220" width="60" height="40" as="geometry" />
        </mxCell>
        <mxCell id="5z4E1XPEqlM8Mm5t0Zw2-25" value="PA-048502LHL923" style="text;html=1;strokeColor=none;fillColor=none;align=center;verticalAlign=middle;whiteSpace=wrap;rounded=0;fontSize=12;" vertex="1" parent="1">
          <mxGeometry x="550" y="220" width="220" height="40" as="geometry" />
        </mxCell>
        <mxCell id="5z4E1XPEqlM8Mm5t0Zw2-26" value="Lumenia" style="text;html=1;strokeColor=none;fillColor=none;align=center;verticalAlign=middle;whiteSpace=wrap;rounded=0;fontSize=12;" vertex="1" parent="1">
          <mxGeometry x="80" y="260" width="140" height="40" as="geometry" />
        </mxCell>
        <mxCell id="5z4E1XPEqlM8Mm5t0Zw2-27" value="Rita" style="text;html=1;strokeColor=none;fillColor=none;align=center;verticalAlign=middle;whiteSpace=wrap;rounded=0;fontSize=12;" vertex="1" parent="1">
          <mxGeometry x="220" y="260" width="140" height="40" as="geometry" />
        </mxCell>
        <mxCell id="5z4E1XPEqlM8Mm5t0Zw2-28" value="A." style="text;html=1;strokeColor=none;fillColor=none;align=center;verticalAlign=middle;whiteSpace=wrap;rounded=0;fontSize=12;" vertex="1" parent="1">
          <mxGeometry x="395" y="260" width="60" height="40" as="geometry" />
        </mxCell>
        <mxCell id="5z4E1XPEqlM8Mm5t0Zw2-29" value="22" style="text;html=1;strokeColor=none;fillColor=none;align=center;verticalAlign=middle;whiteSpace=wrap;rounded=0;fontSize=12;" vertex="1" parent="1">
          <mxGeometry x="480" y="260" width="60" height="40" as="geometry" />
        </mxCell>
        <mxCell id="5z4E1XPEqlM8Mm5t0Zw2-30" value="PA-048502LHL923" style="text;html=1;strokeColor=none;fillColor=none;align=center;verticalAlign=middle;whiteSpace=wrap;rounded=0;fontSize=12;" vertex="1" parent="1">
          <mxGeometry x="550" y="260" width="220" height="40" as="geometry" />
        </mxCell>
        <mxCell id="5z4E1XPEqlM8Mm5t0Zw2-31" value="" style="rounded=0;whiteSpace=wrap;html=1;fontSize=12;strokeWidth=0;" vertex="1" parent="1">
          <mxGeometry x="80" y="260" width="690" height="40" as="geometry" />
        </mxCell>
        <mxCell id="5z4E1XPEqlM8Mm5t0Zw2-32" value="Lumenia" style="text;html=1;strokeColor=none;fillColor=none;align=center;verticalAlign=middle;whiteSpace=wrap;rounded=0;fontSize=12;" vertex="1" parent="1">
          <mxGeometry x="80" y="300" width="140" height="40" as="geometry" />
        </mxCell>
        <mxCell id="5z4E1XPEqlM8Mm5t0Zw2-33" value="Rita" style="text;html=1;strokeColor=none;fillColor=none;align=center;verticalAlign=middle;whiteSpace=wrap;rounded=0;fontSize=12;" vertex="1" parent="1">
          <mxGeometry x="220" y="300" width="140" height="40" as="geometry" />
        </mxCell>
        <mxCell id="5z4E1XPEqlM8Mm5t0Zw2-34" value="A." style="text;html=1;strokeColor=none;fillColor=none;align=center;verticalAlign=middle;whiteSpace=wrap;rounded=0;fontSize=12;" vertex="1" parent="1">
          <mxGeometry x="395" y="300" width="60" height="40" as="geometry" />
        </mxCell>
        <mxCell id="5z4E1XPEqlM8Mm5t0Zw2-35" value="22" style="text;html=1;strokeColor=none;fillColor=none;align=center;verticalAlign=middle;whiteSpace=wrap;rounded=0;fontSize=12;" vertex="1" parent="1">
          <mxGeometry x="480" y="300" width="60" height="40" as="geometry" />
        </mxCell>
        <mxCell id="5z4E1XPEqlM8Mm5t0Zw2-36" value="PA-048502LHL923" style="text;html=1;strokeColor=none;fillColor=none;align=center;verticalAlign=middle;whiteSpace=wrap;rounded=0;fontSize=12;" vertex="1" parent="1">
          <mxGeometry x="550" y="300" width="220" height="40" as="geometry" />
        </mxCell>
        <mxCell id="5z4E1XPEqlM8Mm5t0Zw2-37" value="" style="rounded=0;whiteSpace=wrap;html=1;fontSize=12;strokeWidth=0;" vertex="1" parent="1">
          <mxGeometry x="80" y="300" width="690" height="40" as="geometry" />
        </mxCell>
        <mxCell id="5z4E1XPEqlM8Mm5t0Zw2-38" value="Lumenia" style="text;html=1;strokeColor=none;fillColor=none;align=center;verticalAlign=middle;whiteSpace=wrap;rounded=0;fontSize=12;" vertex="1" parent="1">
          <mxGeometry x="80" y="340" width="140" height="40" as="geometry" />
        </mxCell>
        <mxCell id="5z4E1XPEqlM8Mm5t0Zw2-39" value="Rita" style="text;html=1;strokeColor=none;fillColor=none;align=center;verticalAlign=middle;whiteSpace=wrap;rounded=0;fontSize=12;" vertex="1" parent="1">
          <mxGeometry x="220" y="340" width="140" height="40" as="geometry" />
        </mxCell>
        <mxCell id="5z4E1XPEqlM8Mm5t0Zw2-40" value="A." style="text;html=1;strokeColor=none;fillColor=none;align=center;verticalAlign=middle;whiteSpace=wrap;rounded=0;fontSize=12;" vertex="1" parent="1">
          <mxGeometry x="395" y="340" width="60" height="40" as="geometry" />
        </mxCell>
        <mxCell id="5z4E1XPEqlM8Mm5t0Zw2-41" value="22" style="text;html=1;strokeColor=none;fillColor=none;align=center;verticalAlign=middle;whiteSpace=wrap;rounded=0;fontSize=12;" vertex="1" parent="1">
          <mxGeometry x="480" y="340" width="60" height="40" as="geometry" />
        </mxCell>
        <mxCell id="5z4E1XPEqlM8Mm5t0Zw2-42" value="PA-048502LHL923" style="text;html=1;strokeColor=none;fillColor=none;align=center;verticalAlign=middle;whiteSpace=wrap;rounded=0;fontSize=12;" vertex="1" parent="1">
          <mxGeometry x="550" y="340" width="220" height="40" as="geometry" />
        </mxCell>
        <mxCell id="5z4E1XPEqlM8Mm5t0Zw2-43" value="" style="rounded=0;whiteSpace=wrap;html=1;fontSize=12;strokeWidth=0;" vertex="1" parent="1">
          <mxGeometry x="80" y="340" width="690" height="40" as="geometry" />
        </mxCell>
        <mxCell id="5z4E1XPEqlM8Mm5t0Zw2-44" value="Lumenia" style="text;html=1;strokeColor=none;fillColor=none;align=center;verticalAlign=middle;whiteSpace=wrap;rounded=0;fontSize=12;" vertex="1" parent="1">
          <mxGeometry x="80" y="380" width="140" height="40" as="geometry" />
        </mxCell>
        <mxCell id="5z4E1XPEqlM8Mm5t0Zw2-45" value="Rita" style="text;html=1;strokeColor=none;fillColor=none;align=center;verticalAlign=middle;whiteSpace=wrap;rounded=0;fontSize=12;" vertex="1" parent="1">
          <mxGeometry x="220" y="380" width="140" height="40" as="geometry" />
        </mxCell>
        <mxCell id="5z4E1XPEqlM8Mm5t0Zw2-46" value="A." style="text;html=1;strokeColor=none;fillColor=none;align=center;verticalAlign=middle;whiteSpace=wrap;rounded=0;fontSize=12;" vertex="1" parent="1">
          <mxGeometry x="395" y="380" width="60" height="40" as="geometry" />
        </mxCell>
        <mxCell id="5z4E1XPEqlM8Mm5t0Zw2-47" value="22" style="text;html=1;strokeColor=none;fillColor=none;align=center;verticalAlign=middle;whiteSpace=wrap;rounded=0;fontSize=12;" vertex="1" parent="1">
          <mxGeometry x="480" y="380" width="60" height="40" as="geometry" />
        </mxCell>
        <mxCell id="5z4E1XPEqlM8Mm5t0Zw2-48" value="PA-048502LHL923" style="text;html=1;strokeColor=none;fillColor=none;align=center;verticalAlign=middle;whiteSpace=wrap;rounded=0;fontSize=12;" vertex="1" parent="1">
          <mxGeometry x="550" y="380" width="220" height="40" as="geometry" />
        </mxCell>
        <mxCell id="5z4E1XPEqlM8Mm5t0Zw2-49" value="" style="rounded=0;whiteSpace=wrap;html=1;fontSize=12;strokeWidth=0;" vertex="1" parent="1">
          <mxGeometry x="80" y="380" width="690" height="40" as="geometry" />
        </mxCell>
        <mxCell id="5z4E1XPEqlM8Mm5t0Zw2-50" value="Lumenia" style="text;html=1;strokeColor=none;fillColor=none;align=center;verticalAlign=middle;whiteSpace=wrap;rounded=0;fontSize=12;" vertex="1" parent="1">
          <mxGeometry x="80" y="420" width="140" height="40" as="geometry" />
        </mxCell>
        <mxCell id="5z4E1XPEqlM8Mm5t0Zw2-51" value="Rita" style="text;html=1;strokeColor=none;fillColor=none;align=center;verticalAlign=middle;whiteSpace=wrap;rounded=0;fontSize=12;" vertex="1" parent="1">
          <mxGeometry x="220" y="420" width="140" height="40" as="geometry" />
        </mxCell>
        <mxCell id="5z4E1XPEqlM8Mm5t0Zw2-52" value="A." style="text;html=1;strokeColor=none;fillColor=none;align=center;verticalAlign=middle;whiteSpace=wrap;rounded=0;fontSize=12;" vertex="1" parent="1">
          <mxGeometry x="395" y="420" width="60" height="40" as="geometry" />
        </mxCell>
        <mxCell id="5z4E1XPEqlM8Mm5t0Zw2-53" value="22" style="text;html=1;strokeColor=none;fillColor=none;align=center;verticalAlign=middle;whiteSpace=wrap;rounded=0;fontSize=12;" vertex="1" parent="1">
          <mxGeometry x="480" y="420" width="60" height="40" as="geometry" />
        </mxCell>
        <mxCell id="5z4E1XPEqlM8Mm5t0Zw2-54" value="PA-048502LHL923" style="text;html=1;strokeColor=none;fillColor=none;align=center;verticalAlign=middle;whiteSpace=wrap;rounded=0;fontSize=12;" vertex="1" parent="1">
          <mxGeometry x="550" y="420" width="220" height="40" as="geometry" />
        </mxCell>
        <mxCell id="5z4E1XPEqlM8Mm5t0Zw2-55" value="" style="rounded=0;whiteSpace=wrap;html=1;fontSize=12;strokeWidth=0;" vertex="1" parent="1">
          <mxGeometry x="80" y="420" width="690" height="40" as="geometry" />
        </mxCell>
        <mxCell id="5z4E1XPEqlM8Mm5t0Zw2-56" value="Lumenia" style="text;html=1;strokeColor=none;fillColor=none;align=center;verticalAlign=middle;whiteSpace=wrap;rounded=0;fontSize=12;" vertex="1" parent="1">
          <mxGeometry x="80" y="460" width="140" height="40" as="geometry" />
        </mxCell>
        <mxCell id="5z4E1XPEqlM8Mm5t0Zw2-57" value="Rita" style="text;html=1;strokeColor=none;fillColor=none;align=center;verticalAlign=middle;whiteSpace=wrap;rounded=0;fontSize=12;" vertex="1" parent="1">
          <mxGeometry x="220" y="460" width="140" height="40" as="geometry" />
        </mxCell>
        <mxCell id="5z4E1XPEqlM8Mm5t0Zw2-58" value="A." style="text;html=1;strokeColor=none;fillColor=none;align=center;verticalAlign=middle;whiteSpace=wrap;rounded=0;fontSize=12;" vertex="1" parent="1">
          <mxGeometry x="395" y="460" width="60" height="40" as="geometry" />
        </mxCell>
        <mxCell id="5z4E1XPEqlM8Mm5t0Zw2-59" value="22" style="text;html=1;strokeColor=none;fillColor=none;align=center;verticalAlign=middle;whiteSpace=wrap;rounded=0;fontSize=12;" vertex="1" parent="1">
          <mxGeometry x="480" y="460" width="60" height="40" as="geometry" />
        </mxCell>
        <mxCell id="5z4E1XPEqlM8Mm5t0Zw2-60" value="PA-048502LHL923" style="text;html=1;strokeColor=none;fillColor=none;align=center;verticalAlign=middle;whiteSpace=wrap;rounded=0;fontSize=12;" vertex="1" parent="1">
          <mxGeometry x="550" y="460" width="220" height="40" as="geometry" />
        </mxCell>
        <mxCell id="5z4E1XPEqlM8Mm5t0Zw2-61" value="" style="rounded=0;whiteSpace=wrap;html=1;fontSize=12;strokeWidth=0;" vertex="1" parent="1">
          <mxGeometry x="80" y="460" width="690" height="40" as="geometry" />
        </mxCell>
        <mxCell id="5z4E1XPEqlM8Mm5t0Zw2-62" value="Lumenia" style="text;html=1;strokeColor=none;fillColor=none;align=center;verticalAlign=middle;whiteSpace=wrap;rounded=0;fontSize=12;" vertex="1" parent="1">
          <mxGeometry x="80" y="500" width="140" height="40" as="geometry" />
        </mxCell>
        <mxCell id="5z4E1XPEqlM8Mm5t0Zw2-63" value="Rita" style="text;html=1;strokeColor=none;fillColor=none;align=center;verticalAlign=middle;whiteSpace=wrap;rounded=0;fontSize=12;" vertex="1" parent="1">
          <mxGeometry x="220" y="500" width="140" height="40" as="geometry" />
        </mxCell>
        <mxCell id="5z4E1XPEqlM8Mm5t0Zw2-64" value="A." style="text;html=1;strokeColor=none;fillColor=none;align=center;verticalAlign=middle;whiteSpace=wrap;rounded=0;fontSize=12;" vertex="1" parent="1">
          <mxGeometry x="395" y="500" width="60" height="40" as="geometry" />
        </mxCell>
        <mxCell id="5z4E1XPEqlM8Mm5t0Zw2-65" value="22" style="text;html=1;strokeColor=none;fillColor=none;align=center;verticalAlign=middle;whiteSpace=wrap;rounded=0;fontSize=12;" vertex="1" parent="1">
          <mxGeometry x="480" y="500" width="60" height="40" as="geometry" />
        </mxCell>
        <mxCell id="5z4E1XPEqlM8Mm5t0Zw2-66" value="PA-048502LHL923" style="text;html=1;strokeColor=none;fillColor=none;align=center;verticalAlign=middle;whiteSpace=wrap;rounded=0;fontSize=12;" vertex="1" parent="1">
          <mxGeometry x="550" y="500" width="220" height="40" as="geometry" />
        </mxCell>
        <mxCell id="5z4E1XPEqlM8Mm5t0Zw2-67" value="" style="rounded=0;whiteSpace=wrap;html=1;fontSize=12;strokeWidth=0;" vertex="1" parent="1">
          <mxGeometry x="80" y="500" width="690" height="40" as="geometry" />
        </mxCell>
        <mxCell id="5z4E1XPEqlM8Mm5t0Zw2-68" value="Lumenia" style="text;html=1;strokeColor=none;fillColor=none;align=center;verticalAlign=middle;whiteSpace=wrap;rounded=0;fontSize=12;" vertex="1" parent="1">
          <mxGeometry x="80" y="540" width="140" height="40" as="geometry" />
        </mxCell>
        <mxCell id="5z4E1XPEqlM8Mm5t0Zw2-69" value="Rita" style="text;html=1;strokeColor=none;fillColor=none;align=center;verticalAlign=middle;whiteSpace=wrap;rounded=0;fontSize=12;" vertex="1" parent="1">
          <mxGeometry x="220" y="540" width="140" height="40" as="geometry" />
        </mxCell>
        <mxCell id="5z4E1XPEqlM8Mm5t0Zw2-70" value="A." style="text;html=1;strokeColor=none;fillColor=none;align=center;verticalAlign=middle;whiteSpace=wrap;rounded=0;fontSize=12;" vertex="1" parent="1">
          <mxGeometry x="395" y="540" width="60" height="40" as="geometry" />
        </mxCell>
        <mxCell id="5z4E1XPEqlM8Mm5t0Zw2-71" value="22" style="text;html=1;strokeColor=none;fillColor=none;align=center;verticalAlign=middle;whiteSpace=wrap;rounded=0;fontSize=12;" vertex="1" parent="1">
          <mxGeometry x="480" y="540" width="60" height="40" as="geometry" />
        </mxCell>
        <mxCell id="5z4E1XPEqlM8Mm5t0Zw2-72" value="PA-048502LHL923" style="text;html=1;strokeColor=none;fillColor=none;align=center;verticalAlign=middle;whiteSpace=wrap;rounded=0;fontSize=12;" vertex="1" parent="1">
          <mxGeometry x="550" y="540" width="220" height="40" as="geometry" />
        </mxCell>
        <mxCell id="5z4E1XPEqlM8Mm5t0Zw2-73" value="" style="rounded=0;whiteSpace=wrap;html=1;fontSize=12;strokeWidth=0;" vertex="1" parent="1">
          <mxGeometry x="80" y="540" width="690" height="40" as="geometry" />
        </mxCell>
        <mxCell id="5z4E1XPEqlM8Mm5t0Zw2-74" value="Lumenia" style="text;html=1;strokeColor=none;fillColor=none;align=center;verticalAlign=middle;whiteSpace=wrap;rounded=0;fontSize=12;" vertex="1" parent="1">
          <mxGeometry x="80" y="580" width="140" height="40" as="geometry" />
        </mxCell>
        <mxCell id="5z4E1XPEqlM8Mm5t0Zw2-75" value="Rita" style="text;html=1;strokeColor=none;fillColor=none;align=center;verticalAlign=middle;whiteSpace=wrap;rounded=0;fontSize=12;" vertex="1" parent="1">
          <mxGeometry x="220" y="580" width="140" height="40" as="geometry" />
        </mxCell>
        <mxCell id="5z4E1XPEqlM8Mm5t0Zw2-76" value="A." style="text;html=1;strokeColor=none;fillColor=none;align=center;verticalAlign=middle;whiteSpace=wrap;rounded=0;fontSize=12;" vertex="1" parent="1">
          <mxGeometry x="395" y="580" width="60" height="40" as="geometry" />
        </mxCell>
        <mxCell id="5z4E1XPEqlM8Mm5t0Zw2-77" value="22" style="text;html=1;strokeColor=none;fillColor=none;align=center;verticalAlign=middle;whiteSpace=wrap;rounded=0;fontSize=12;" vertex="1" parent="1">
          <mxGeometry x="480" y="580" width="60" height="40" as="geometry" />
        </mxCell>
        <mxCell id="5z4E1XPEqlM8Mm5t0Zw2-78" value="PA-048502LHL923" style="text;html=1;strokeColor=none;fillColor=none;align=center;verticalAlign=middle;whiteSpace=wrap;rounded=0;fontSize=12;" vertex="1" parent="1">
          <mxGeometry x="550" y="580" width="220" height="40" as="geometry" />
        </mxCell>
        <mxCell id="5z4E1XPEqlM8Mm5t0Zw2-79" value="" style="rounded=0;whiteSpace=wrap;html=1;fontSize=12;strokeWidth=0;" vertex="1" parent="1">
          <mxGeometry x="80" y="580" width="690" height="40" as="geometry" />
        </mxCell>
      </root>
    </mxGraphModel>
  </diagram>
</mxfile>
